<svg width="30" height="30" viewBox="0 0 30 30" fill="none" xmlns="http://www.w3.org/2000/svg">
<path d="M15 21.6875C16.1253 21.6875 17.0375 20.7753 17.0375 19.65C17.0375 18.5247 16.1253 17.6125 15 17.6125C13.8747 17.6125 12.9625 18.5247 12.9625 19.65C12.9625 20.7753 13.8747 21.6875 15 21.6875Z" fill="#2F74CA"/>
<path d="M20.8125 11.8H9.1875C9.0875 11.8 9 11.8 8.9 11.8V10.35C8.9 6.6875 9.9375 4.25 15 4.25C20.4125 4.25 21.1 6.8875 21.1 9.1875C21.1 9.675 21.4875 10.0625 21.975 10.0625C22.4625 10.0625 22.85 9.675 22.85 9.1875C22.85 4.75 20.2125 2.5 15 2.5C7.9625 2.5 7.15 6.975 7.15 10.35V11.9125C3.65 12.35 2.5 14.125 2.5 18.4875V20.8125C2.5 25.9375 4.0625 27.5 9.1875 27.5H20.8125C25.9375 27.5 27.5 25.9375 27.5 20.8125V18.4875C27.5 13.3625 25.9375 11.8 20.8125 11.8ZM15 23.425C12.9125 23.425 11.225 21.725 11.225 19.65C11.225 17.5625 12.925 15.875 15 15.875C17.075 15.875 18.775 17.575 18.775 19.65C18.775 21.7375 17.0875 23.425 15 23.425Z" fill="#2F74CA"/>
</svg>
